<svg width="32" height="32" viewBox="0 0 32 32" fill="none" xmlns="http://www.w3.org/2000/svg">
    <g clip-path="url(#clip0_103_120)">
        <path d="M12.8238 12.959L10.961 19.1709C10.8028 19.6992 10.9473 20.2725 11.3375 20.6621C11.6226 20.9473 12.0059 21.1016 12.398 21.1016C12.5421 21.1016 12.6871 21.081 12.8287 21.0381L19.0411 19.1758C19.2789 19.1045 19.4957 18.9756 19.671 18.7998L31.0606 7.41016C31.3419 7.12891 31.5001 6.74707 31.5001 6.34961C31.5001 5.95215 31.3419 5.57031 31.0606 5.28906L26.7105 0.939455C26.1246 0.353515 25.1754 0.353515 24.5894 0.939455L13.2003 12.3291C13.0245 12.5049 12.8956 12.7207 12.8238 12.959ZM15.5889 14.1826L25.65 4.12109L27.8785 6.34961L17.8175 16.4111L14.6348 17.3652L15.5889 14.1826Z" fill="#63A1FF"/>
        <path d="M30 14.5C29.1714 14.5 28.5 15.1719 28.5 16V26C28.5 27.3789 27.3784 28.5 26 28.5H6C4.62158 28.5 3.5 27.3789 3.5 26V6C3.5 4.62109 4.62158 3.5 6 3.5H16C16.8286 3.5 17.5 2.82812 17.5 2C17.5 1.17188 16.8286 0.5 16 0.5H6C2.96729 0.5 0.5 2.96777 0.5 6V26C0.5 29.0322 2.96729 31.5 6 31.5H26C29.0327 31.5 31.5 29.0322 31.5 26V16C31.5 15.1719 30.8286 14.5 30 14.5Z" fill="#63A1FF"/>
    </g>
    <defs>
        <clipPath id="clip0_103_120">
            <rect width="32" height="32" fill="white"/>
        </clipPath>
    </defs>
</svg>
